<svg width="30" height="31" viewBox="0 0 30 31" fill="none" xmlns="http://www.w3.org/2000/svg">
<g clip-path="url(#clip0_1945_273)">
<path d="M2.02047 15.529C2.05909 13.0954 2.65785 10.9128 3.81673 8.98136C4.93698 7.01127 6.48215 5.4661 8.45224 4.34585C10.3837 3.18697 12.5663 2.58822 14.9999 2.54959C17.4335 2.58822 19.6161 3.18697 21.5476 4.34585C23.5177 5.4661 25.0628 7.01127 26.1831 8.98136C27.342 10.9128 27.9407 13.0954 27.9793 15.529V23.873C27.9407 24.6455 27.6703 25.3022 27.1681 25.843C26.6273 26.3839 25.9706 26.6543 25.198 26.6543H20.3887C19.9251 25.4954 19.056 24.8773 17.7812 24.8001H14.0728C13.3002 24.8387 12.6435 25.1091 12.1027 25.6113C11.6005 26.1521 11.3301 26.8088 11.2915 27.5814C11.3301 28.3539 11.6005 29.0106 12.1027 29.5515C12.6435 30.0536 13.3002 30.324 14.0728 30.3627H17.7812C19.056 30.2854 19.9251 29.6673 20.3887 28.5085H25.198C26.5114 28.4698 27.6124 28.0256 28.5008 27.1758C29.3507 26.2873 29.7949 25.1863 29.8335 23.873V15.529C29.7949 12.7477 29.1189 10.2561 27.8055 8.05426C26.4921 5.81376 24.7152 4.03681 22.4747 2.72342C20.2728 1.41002 17.7812 0.734011 14.9999 0.695381C12.2186 0.734011 9.72701 1.41002 7.52514 2.72342C5.28464 4.03681 3.50769 5.81376 2.1943 8.05426C0.880902 10.2561 0.204889 12.7477 0.16626 15.529V18.3103C0.204889 18.8898 0.513923 19.1988 1.09336 19.2374C1.6728 19.1988 1.98184 18.8898 2.02047 18.3103V15.529ZM18.7083 27.5814C18.6697 28.1608 18.3607 28.4698 17.7812 28.5085H14.0728C13.4934 28.4698 13.1843 28.1608 13.1457 27.5814C13.1843 27.0019 13.4934 26.6929 14.0728 26.6543H17.7812C18.3607 26.6929 18.6697 27.0019 18.7083 27.5814ZM8.51019 13.6748H9.43729V21.0916H8.51019C7.7376 21.053 7.0809 20.7826 6.54009 20.2804C6.03791 19.7396 5.76751 19.0829 5.72888 18.3103V16.4561C5.76751 15.6835 6.03791 15.0268 6.54009 14.486C7.0809 13.9839 7.7376 13.7134 8.51019 13.6748ZM3.87467 16.4561V18.3103C3.9133 19.6237 4.35754 20.7247 5.20738 21.6131C6.09585 22.463 7.19679 22.9072 8.51019 22.9458H9.43729C9.9781 22.9458 10.4223 22.772 10.77 22.4244C11.1177 22.0767 11.2915 21.6325 11.2915 21.0916V13.6748C11.2915 13.134 11.1177 12.6898 10.77 12.3421C10.4223 11.9944 9.9781 11.8206 9.43729 11.8206H8.51019C7.19679 11.8592 6.09585 12.3035 5.20738 13.1533C4.35754 14.0418 3.9133 15.1427 3.87467 16.4561ZM20.5625 13.6748H21.4896C22.2622 13.7134 22.9189 13.9839 23.4597 14.486C23.9619 15.0268 24.2323 15.6835 24.2709 16.4561V18.3103C24.2323 19.0829 23.9619 19.7396 23.4597 20.2804C22.9189 20.7826 22.2622 21.053 21.4896 21.0916H20.5625V13.6748ZM21.4896 11.8206H20.5625C20.0217 11.8206 19.5775 11.9944 19.2298 12.3421C18.8821 12.6898 18.7083 13.134 18.7083 13.6748V21.0916C18.7083 21.6325 18.8821 22.0767 19.2298 22.4244C19.5775 22.772 20.0217 22.9458 20.5625 22.9458H21.4896C22.803 22.9072 23.904 22.463 24.7924 21.6131C25.6423 20.7247 26.0865 19.6237 26.1251 18.3103V16.4561C26.0865 15.1427 25.6423 14.0418 24.7924 13.1533C23.904 12.3035 22.803 11.8592 21.4896 11.8206Z" fill="white"/>
</g>
<defs>
<clipPath id="clip0_1945_273">
<rect width="30" height="31" fill="white" transform="matrix(1 0 0 -1 0 31)"/>
</clipPath>
</defs>
</svg>
