<svg width="30" height="31" viewBox="0 0 30 31" fill="none" xmlns="http://www.w3.org/2000/svg">
<path d="M4.80177 2.54955C3.48838 2.58817 2.38744 3.03241 1.49897 3.88226C0.649126 4.77073 0.204889 5.87166 0.16626 7.18506V23.8729C0.204889 25.1863 0.649126 26.2872 1.49897 27.1757C2.38744 28.0256 3.48838 28.4698 4.80177 28.5084H25.198C26.5114 28.4698 27.6124 28.0256 28.5008 27.1757C29.3507 26.2872 29.7949 25.1863 29.8335 23.8729V10.8935C29.7949 9.58007 29.3507 8.47914 28.5008 7.59067C27.6124 6.74082 26.5114 6.29659 25.198 6.25796H6.65598C6.07654 6.29659 5.76751 6.60562 5.72888 7.18506C5.76751 7.7645 6.07654 8.07353 6.65598 8.11216H25.198C25.9706 8.15079 26.6273 8.4212 27.1681 8.92338C27.6703 9.46419 27.9407 10.1209 27.9793 10.8935V23.8729C27.9407 24.6455 27.6703 25.3022 27.1681 25.843C26.6273 26.3452 25.9706 26.6156 25.198 26.6542H4.80177C4.02919 26.6156 3.37249 26.3452 2.83168 25.843C2.3295 25.3022 2.05909 24.6455 2.02047 23.8729V7.18506C2.05909 6.41247 2.3295 5.75578 2.83168 5.21497C3.37249 4.71279 4.02919 4.44238 4.80177 4.40375H27.0522C27.6317 4.36512 27.9407 4.05609 27.9793 3.47665C27.9407 2.89721 27.6317 2.58817 27.0522 2.54955H4.80177ZM22.4167 18.7738C23.2666 18.6966 23.7301 18.233 23.8074 17.3832C23.7301 16.5333 23.2666 16.0698 22.4167 15.9925C21.5669 16.0698 21.1033 16.5333 21.0261 17.3832C21.1033 18.233 21.5669 18.6966 22.4167 18.7738Z" fill="white"/>
</svg>
