<svg width="30" height="31" viewBox="0 0 30 31" fill="none" xmlns="http://www.w3.org/2000/svg">
<path d="M4.16443 12.9215C4.82113 10.4106 6.11521 8.38257 8.04668 6.8374C10.0168 5.2536 12.3345 4.44238 14.9999 4.40375C17.0859 4.44238 18.9594 4.94456 20.6205 5.91029C22.3202 6.91466 23.6529 8.26668 24.6186 9.96637H21.4897C20.9102 10.005 20.6012 10.314 20.5626 10.8935C20.6012 11.4729 20.9102 11.7819 21.4897 11.8206H26.1831H27.0523C27.6317 11.7819 27.9408 11.4729 27.9794 10.8935V5.33085C27.9408 4.75142 27.6317 4.44238 27.0523 4.40375C26.4728 4.44238 26.1638 4.75142 26.1252 5.33085V8.86543C24.9663 6.93397 23.4211 5.40811 21.4897 4.28786C19.5582 3.16761 17.395 2.58817 14.9999 2.54955C11.871 2.6268 9.16692 3.59254 6.8878 5.44674C4.57004 7.30095 3.0635 9.69596 2.36817 12.6318C2.29091 13.2499 2.58063 13.5975 3.23733 13.6748C3.73951 13.6361 4.06786 13.3851 4.22238 12.9215H4.16443ZM25.8355 18.1944C25.1788 20.6667 23.8847 22.6754 21.9532 24.2206C19.9831 25.8044 17.6654 26.6156 14.9999 26.6542C12.914 26.6156 11.0404 26.1134 9.37939 25.1477C7.6797 24.1433 6.34699 22.7913 5.38126 21.0916H8.51023C9.08967 21.053 9.3987 20.7439 9.43733 20.1645C9.3987 19.5851 9.08967 19.276 8.51023 19.2374H3.81677H2.94761C2.4068 19.276 2.09777 19.5851 2.02051 20.1645V25.7271C2.09777 26.3066 2.4068 26.6156 2.94761 26.6542C3.52705 26.6156 3.83608 26.3066 3.87471 25.7271V22.2505C5.03359 24.1433 6.57876 25.6499 8.51023 26.7701C10.4417 27.8904 12.6049 28.4698 14.9999 28.5084C18.1289 28.4312 20.8523 27.4654 23.17 25.6112C25.4492 23.757 26.9364 21.362 27.6317 18.4262C27.709 17.8081 27.4193 17.4604 26.7626 17.3832C26.2604 17.4218 25.9513 17.6729 25.8355 18.1365V18.1944Z" fill="white"/>
</svg>
