<svg width="38" height="31" viewBox="0 0 38 31" fill="none" xmlns="http://www.w3.org/2000/svg">
<g clip-path="url(#clip0_1945_252)">
<path d="M4.1663 2.54959C3.62549 2.54959 3.18125 2.72342 2.83359 3.07108C2.48592 3.41875 2.31209 3.86298 2.31209 4.40379V21.0916C2.31209 21.6325 2.48592 22.0767 2.83359 22.4244C3.18125 22.772 3.62549 22.9458 4.1663 22.9458H4.51396C4.90025 21.8642 5.55695 20.9758 6.48405 20.2804C7.41116 19.6237 8.49278 19.2761 9.72891 19.2374C10.9651 19.2761 12.0467 19.6237 12.9738 20.2804C13.9009 20.9758 14.5769 21.8642 15.0018 22.9458H22.7084V4.40379C22.7084 3.86298 22.5345 3.41875 22.1869 3.07108C21.8392 2.72342 21.395 2.54959 20.8541 2.54959H4.1663ZM4.1663 24.8001C3.12331 24.7614 2.25415 24.3944 1.55882 23.6991C0.863493 23.0038 0.496515 22.1346 0.457886 21.0916V4.40379C0.496515 3.3608 0.863493 2.49164 1.55882 1.79632C2.25415 1.10099 3.12331 0.734011 4.1663 0.695381H20.8541C21.8971 0.734011 22.7663 1.10099 23.4616 1.79632C24.157 2.49164 24.5239 3.3608 24.5626 4.40379V6.258H28.3289C29.1788 6.258 29.8934 6.58635 30.4728 7.24304L34.9925 12.5739C35.456 13.0761 35.6878 13.6748 35.6878 14.3701V22.9458H36.6149C37.1943 22.9845 37.5034 23.2935 37.542 23.873C37.5034 24.4524 37.1943 24.7614 36.6149 24.8001H33.8336C33.795 26.3839 33.2542 27.6973 32.2112 28.7402C31.1682 29.7832 29.8548 30.324 28.271 30.3627C26.6872 30.324 25.3738 29.7832 24.3308 28.7402C23.2878 27.6973 22.747 26.3839 22.7084 24.8001H15.2915C15.2529 26.3839 14.7121 27.6973 13.6691 28.7402C12.6261 29.7832 11.3127 30.324 9.72891 30.3627C8.14511 30.324 6.83172 29.7832 5.78873 28.7402C4.74574 27.6973 4.20493 26.3839 4.1663 24.8001ZM24.5626 13.6748H33.5439L29.0242 8.45987C28.8697 8.22809 28.6379 8.1122 28.3289 8.1122H24.5626V13.6748ZM24.5626 15.529V20.6281C25.5669 19.7396 26.8031 19.2761 28.271 19.2374C29.5071 19.2761 30.5887 19.6237 31.5158 20.2804C32.4429 20.9758 33.1189 21.8642 33.5439 22.9458H33.8336V15.529H24.5626ZM13.4373 24.8001C13.3987 23.4094 12.7806 22.3471 11.5831 21.6131C10.347 20.9178 9.11085 20.9178 7.87471 21.6131C6.6772 22.3471 6.05913 23.4094 6.0205 24.8001C6.05913 26.1907 6.6772 27.253 7.87471 27.987C9.11085 28.6823 10.347 28.6823 11.5831 27.987C12.7806 27.253 13.3987 26.1907 13.4373 24.8001ZM28.271 28.5085C29.6616 28.4698 30.7239 27.8518 31.4579 26.6543C32.1532 25.4181 32.1532 24.182 31.4579 22.9458C30.7239 21.7483 29.6616 21.1303 28.271 21.0916C26.8803 21.1303 25.818 21.7483 25.0841 22.9458C24.3887 24.182 24.3887 25.4181 25.0841 26.6543C25.818 27.8518 26.8803 28.4698 28.271 28.5085Z" fill="white"/>
</g>
<defs>
<clipPath id="clip0_1945_252">
<rect width="37.5" height="31" fill="white" transform="matrix(1 0 0 -1 0.25 31)"/>
</clipPath>
</defs>
</svg>
